<svg width="644" height="597" viewBox="0 0 644 597" fill="none" xmlns="http://www.w3.org/2000/svg">
<g clip-path="url(#clip0_53_16)">
<path fill-rule="evenodd" clip-rule="evenodd" d="M568.5 168.5L644 93L632.5 82L529 186L527.5 187L516 175.5L568.5 122.5V86.5L644 11L632.5 0L528 104.5H527L516 94V92.5L556 52.5L404.5 52V99.5L329 174.5V176L340 186.5L444.5 82H446L457 93.5L404.5 145.5V181.5L370 216.5H275V216L315 176V175L303.5 164L198.5 269L187.5 258V257L239.5 205V169L315 94V92.5L304 82L198.5 187L187.5 176V175L239.5 123V87L315 12V10.5L304 0L199.5 104.5H198L187 93L227.5 52.5L76 52C75.8333 67.8333 75.6667 83.6667 75.5 99.5V100L0 175.5L11.5 186.5L116 82H117L128 92.5V93.5L75.5 146V181.5L0.5 256.5V258L10.5 268.5H12L116.5 164L128 175.5L75.5 228V263.5L18 322L0 340L11.5 351L21 341L116.5 246L128 257.5L75.5 310V346L10.5 411.5L0 422L11.5 433L81 363L116.5 328L128 339.5L75.5 392V428.5L0 504L11.5 515L117 410L128 421.5L75.5 474.5V510.5L0 586L5 590.5L11.5 597L116 492.5H117L128 503V504L88 544V544.5L239 545C239.167 529.333 239.333 513.667 239.5 498L315 422.5V421L304 410.5L198.5 515.5L187.5 504.5V503.5L239.5 451.5V415.5L274.5 380.5H369V381L329 421V422.5L340 433L444 328.5L445.5 328L456.5 339V340L404.5 392V427.5L329 503V504.5L340 515L444.5 410.5H445.5L456.5 421V422L404.5 474V510L349.5 565.5L329 586L340 597L444.5 492.5H445.5L456.5 503V504C448.69 514.23 420.25 535 417 545L567.5 544.5C570.21 541.44 568.62 504.92 568.5 497.5V497L644 421.5L633.5 410.5C625.72 413.06 611.73 431.27 605.5 437.5L529 514.5L527.5 515.5L516 504.5V503.5L568.5 451V415L644 339.5L633.5 328.5H632.5L528 433H527L519.5 425L516 421.5L568.5 369V333.5L643.5 258.5V256.5L632.5 246L617 262L527.5 351L516 339.5L568.5 287V251L619 200L644 175L632.5 164L619 178L527.5 269L516 257.5L568.5 205V168.5ZM199.5 351H198.5L187.5 340.5V339.5L280.5 246H281.5L292.5 257.5L199.5 351ZM456.5 258L444 270L363 351L351.5 339.5L444.5 246C449.61 247.65 452.5 253.43 456.5 256.5V258ZM456.5 176L363 269L352 258.5V257.5L444.5 164C449.61 165.65 452.5 171.43 456.5 174.5V176Z" fill="#745CF2"/>
</g>
<defs>
<clipPath id="clip0_53_16">
<rect width="644" height="597" fill="white"/>
</clipPath>
</defs>
</svg>
