<svg width="187" height="173" viewBox="0 0 187 173" fill="none" xmlns="http://www.w3.org/2000/svg">
<g clip-path="url(#clip0_53_78)">
<path fill-rule="evenodd" clip-rule="evenodd" d="M165.077 48.8283L187 26.9497L183.661 23.7621L153.607 53.8995L153.172 54.1893L149.832 50.8568L165.077 35.4983V25.0662L187 3.1876L183.661 0L153.317 30.2822H153.026L149.832 27.2395V26.8049L161.447 15.2136L117.456 15.0687V28.8333L95.5326 50.567V51.0017L98.7267 54.0444L129.071 23.7621H129.506L132.7 27.0946L117.456 42.1633V52.5955L107.438 62.7379H79.8525V62.593L91.4674 51.0017V50.7119L88.1281 47.5243L57.639 77.9514L54.4449 74.7638V74.474L69.5443 59.4054V48.9732L91.4674 27.2395V26.8049L88.2733 23.7621L57.639 54.1893L54.4449 51.0017V50.7119L69.5443 35.6432V25.2111L91.4674 3.47739V3.04271L88.2733 0L57.9293 30.2822H57.4938L54.2997 26.9497L66.0598 15.2136L22.0683 15.0687C22.0199 19.6569 21.9715 24.2451 21.9231 28.8333V28.9782L0 50.8568L3.33929 54.0444L33.6832 23.7621H33.9736L37.1677 26.8049V27.0946L21.9231 42.3082V52.5955L0.145186 74.3291V74.7638L3.04891 77.8065H3.48447L33.8284 47.5243L37.1677 50.8568L21.9231 66.0704V76.3576L5.22671 93.3099L0 98.526L3.33929 101.714L6.09783 98.8158L33.8284 71.2864L37.1677 74.6189L21.9231 89.8325V100.265L3.04891 119.245L0 122.288L3.33929 125.476L23.5202 105.191L33.8284 95.0486L37.1677 98.3811L21.9231 113.595V124.172L0 146.05L3.33929 149.238L33.9736 118.811L37.1677 122.143L21.9231 137.502V147.934L0 169.812L1.45186 171.116L3.33929 173L33.6832 142.718H33.9736L37.1677 145.76V146.05L25.5528 157.642V157.786L69.3991 157.931C69.4475 153.391 69.4959 148.851 69.5443 144.312L91.4674 122.433V121.998L88.2733 118.956L57.639 149.383L54.4449 146.195V145.905L69.5443 130.837V120.405L79.7073 110.262H107.148V110.407L95.5326 121.998V122.433L98.7267 125.476L128.925 95.1935L129.361 95.0486L132.555 98.2362V98.526L117.456 113.595V123.882L95.5326 145.76V146.195L98.7267 149.238L129.071 118.956H129.361L132.555 121.998V122.288L117.456 137.357V147.789L101.485 163.872L95.5326 169.812L98.7267 173L129.071 142.718H129.361L132.555 145.76V146.05C130.287 149.015 122.029 155.034 121.085 157.931L164.786 157.786C165.573 156.9 165.112 146.317 165.077 144.167V144.022L187 122.143L183.951 118.956C181.692 119.697 177.63 124.974 175.821 126.78L153.607 149.093L153.172 149.383L149.832 146.195V145.905L165.077 130.692V120.26L187 98.3811L183.951 95.1935H183.661L153.317 125.476H153.026L150.849 123.157L149.832 122.143L165.077 106.93V96.6424L186.855 74.9087V74.3291L183.661 71.2864L179.16 75.923L153.172 101.714L149.832 98.3811L165.077 83.1675V72.7353L179.741 57.9565L187 50.7119L183.661 47.5243L179.741 51.5812L153.172 77.9514L149.832 74.6189L165.077 59.4054V48.8283ZM57.9293 101.714H57.639L54.4449 98.6709V98.3811L81.4495 71.2864H81.7399L84.934 74.6189L57.9293 101.714ZM132.555 74.7638L128.925 78.2412L105.405 101.714L102.066 98.3811L129.071 71.2864C130.554 71.7646 131.394 73.4395 132.555 74.3291V74.7638ZM132.555 51.0017L105.405 77.9514L102.211 74.9087V74.6189L129.071 47.5243C130.554 48.0024 131.394 49.6774 132.555 50.567V51.0017Z" fill="#745CF2"/>
</g>
<defs>
<clipPath id="clip0_53_78">
<rect width="187" height="173" fill="white"/>
</clipPath>
</defs>
</svg>
