<svg width="17" height="20" viewBox="0 0 17 20" fill="none" xmlns="http://www.w3.org/2000/svg">
<path d="M11.6316 15.2381C12.1326 15.2381 12.5263 15.6571 12.5263 16.1905C12.5263 16.7238 12.1326 17.1429 11.6316 17.1429C11.1305 17.1429 10.7368 16.7238 10.7368 16.1905C10.7368 15.6571 11.1305 15.2381 11.6316 15.2381ZM11.6316 12.381C9.18895 12.381 7.10421 13.9619 6.26316 16.1905C7.10421 18.419 9.18895 20 11.6316 20C14.0742 20 16.1589 18.419 17 16.1905C16.1589 13.9619 14.0742 12.381 11.6316 12.381ZM11.6316 18.5714C11.0383 18.5714 10.4694 18.3206 10.0499 17.8741C9.6304 17.4275 9.39474 16.8219 9.39474 16.1905C9.39474 15.559 9.6304 14.9534 10.0499 14.5069C10.4694 14.0604 11.0383 13.8095 11.6316 13.8095C12.2248 13.8095 12.7938 14.0604 13.2133 14.5069C13.6328 14.9534 13.8684 15.559 13.8684 16.1905C13.8684 16.8219 13.6328 17.4275 13.2133 17.8741C12.7938 18.3206 12.2248 18.5714 11.6316 18.5714ZM4.59895 16.9048L4.33947 16.1905L4.59895 15.4857C5.75316 12.4381 8.5 10.4762 11.6316 10.4762C12.5711 10.4762 13.4747 10.6762 14.3158 11.0095V5.71429L8.94737 0H1.78947C0.796316 0 0 0.847619 0 1.90476V17.1429C0 17.648 0.188533 18.1325 0.524125 18.4897C0.859716 18.8469 1.31488 19.0476 1.78947 19.0476H5.81579C5.32368 18.419 4.92105 17.6952 4.59895 16.9048ZM8.05263 1.42857L12.9737 6.66667H8.05263V1.42857Z" fill="white"/>
</svg>
